<svg width="121" height="32" viewBox="0 0 121 32" fill="none" xmlns="http://www.w3.org/2000/svg">
<g clip-path="url(#clip0_3234_59346)">
<path d="M120.735 31.7509C118.552 31.7537 116.37 31.7593 114.184 31.7593C111.862 31.7593 109.539 31.7593 107.214 31.7593C106.714 31.7593 106.714 31.7593 106.717 31.2591C106.717 21.0302 106.719 10.8042 106.711 0.5754C106.711 0.22885 106.823 0.150597 107.147 0.153392C108.494 0.167365 109.841 0.158981 111.188 0.158981C111.666 0.158981 111.669 0.158981 111.669 0.63968C111.674 8.42029 111.677 16.2009 111.68 23.9815C111.68 24.7892 111.68 25.5969 111.68 26.4046C111.68 26.821 111.708 26.8489 112.138 26.8489C114.704 26.8489 117.272 26.8489 119.838 26.8601C120.137 26.8601 120.433 26.9272 120.732 26.9635V31.7426L120.735 31.7509Z" fill="#968C8A"/>
<path d="M71.0586 18.1853C71.3744 16.7572 71.6874 15.3319 72.0032 13.9037C72.9898 9.4433 73.9763 4.98286 74.9545 0.519632C75.016 0.242951 75.1222 0.153518 75.4128 0.156313C77.4921 0.170287 79.5715 0.164697 81.6508 0.164697C82.1706 0.164697 82.1734 0.164697 82.1734 0.681728C82.1734 4.36522 82.1734 8.04872 82.1734 11.7294C82.1734 18.2412 82.1734 24.753 82.1734 31.2648C82.1734 31.793 82.151 31.7958 81.6228 31.7874C80.2869 31.765 78.951 31.7483 77.6151 31.7567C77.2518 31.7567 77.168 31.6225 77.168 31.2899C77.1763 25.7843 77.1763 20.2758 77.1791 14.7701C77.1791 14.1245 77.1791 13.4817 77.1791 12.7635C77.0506 13.233 76.9192 13.6382 76.827 14.0547C76.1311 17.1848 75.4436 20.3177 74.7533 23.4506C74.1999 25.9519 73.6382 28.4505 73.0904 30.9518C72.8948 31.8461 73.0792 31.7734 72.0535 31.7762C71.2179 31.7762 70.3795 31.7511 69.5439 31.7762C69.1582 31.7874 69.0268 31.6309 68.9514 31.2788C68.3812 28.6154 67.7943 25.9575 67.2102 23.2997C66.464 19.8985 65.7178 16.4945 64.9716 13.0933C64.9577 13.029 64.9381 12.9647 64.9213 12.8976C64.8878 12.8976 64.8542 12.8976 64.8207 12.8948C64.8207 13.0402 64.8207 13.1855 64.8207 13.3308C64.8207 15.2368 64.8179 17.1401 64.8179 19.0461C64.8179 23.0985 64.8179 27.1509 64.8179 31.2033C64.8179 31.8014 64.8179 31.807 64.231 31.8042C62.9063 31.7986 61.5816 31.7762 60.2597 31.7818C59.9019 31.7818 59.8125 31.6477 59.8125 31.3095C59.8237 25.0856 59.8237 18.8644 59.8237 12.6405C59.8237 8.62164 59.8237 4.60557 59.8125 0.586706C59.8125 0.240156 59.9271 0.164697 60.2513 0.167492C62.3529 0.178671 64.4574 0.181466 66.5591 0.161903C66.9196 0.159108 66.9866 0.351946 67.0453 0.611859C67.3472 1.9757 67.6434 3.33954 67.948 4.70059C68.412 6.78269 68.8843 8.86479 69.3454 10.9497C69.8625 13.2805 70.3683 15.6141 70.8825 17.945C70.9021 18.0372 70.9384 18.1266 70.9664 18.2161C70.9971 18.2077 71.0279 18.2021 71.0558 18.1937L71.0586 18.1853Z" fill="#968C8A"/>
<path d="M19.6624 15.9495C19.6624 10.8239 19.6624 5.69831 19.6568 0.569929C19.6568 0.256916 19.7351 0.15351 20.0593 0.156305C21.4287 0.173073 22.8009 0.161894 24.1704 0.164689C24.6035 0.164689 24.6371 0.192637 24.6427 0.639798C24.6511 1.28539 24.6483 1.93377 24.6483 2.57936C24.6483 5.8129 24.6511 9.04364 24.6427 12.2772C24.6427 12.5874 24.7265 12.6545 25.0367 12.6517C26.8366 12.6321 28.6364 12.6405 30.439 12.6405C30.8918 12.6405 30.8946 12.6433 30.8946 12.1458C30.8946 8.47351 30.8946 4.80399 30.8946 1.13168C30.8946 0.913685 30.9085 0.692899 30.8946 0.474908C30.8806 0.231763 30.9868 0.156305 31.2243 0.1591C32.6525 0.167484 34.0834 0.167484 35.5115 0.1591C35.7826 0.1591 35.8888 0.254122 35.8832 0.519624C35.8748 0.91089 35.8832 1.30495 35.8832 1.69622C35.8832 11.4974 35.8832 21.2987 35.8832 31.1027C35.8832 31.8014 35.8832 31.7846 35.1817 31.7762C33.9045 31.7566 32.6273 31.7594 31.3473 31.7539C30.8918 31.7539 30.8834 31.7455 30.8834 31.2843C30.8834 26.8518 30.8834 22.4194 30.8946 17.9841C30.8946 17.6375 30.78 17.5509 30.4558 17.5509C28.656 17.5593 26.8533 17.5621 25.0535 17.5481C24.7293 17.5481 24.6427 17.6487 24.6427 17.9645C24.6511 22.3858 24.6483 26.8071 24.6455 31.2312C24.6455 31.7678 24.6231 31.7986 24.0809 31.7958C22.745 31.7902 21.4091 31.765 20.0732 31.7762C19.6848 31.779 19.6484 31.6057 19.6484 31.2927C19.654 26.1783 19.654 21.0639 19.654 15.9495H19.6624Z" fill="#968C8A"/>
<path d="M85.3203 31.6923C85.4181 31.1473 85.5132 30.608 85.611 30.0686C85.9994 27.911 86.3907 25.7563 86.7792 23.5987C87.1816 21.3741 87.5841 19.1494 87.9865 16.9248C88.4952 14.1105 89.001 11.2962 89.5125 8.48184C89.9987 5.80446 90.4906 3.12708 90.9713 0.446905C91.0104 0.223324 91.1083 0.16184 91.3151 0.16184C93.4866 0.164634 95.6609 0.167429 97.8324 0.15625C98.1231 0.15625 98.1762 0.312757 98.2153 0.533543C98.5088 2.16848 98.8022 3.80341 99.1013 5.43835C99.5149 7.70769 99.9425 9.97424 100.351 12.2436C100.968 15.6728 101.569 19.1019 102.184 22.5311C102.645 25.0967 103.112 27.6595 103.578 30.2251C103.657 30.6555 103.732 31.0887 103.824 31.5163C103.869 31.7287 103.782 31.7873 103.592 31.7873C102.142 31.7762 100.689 31.7594 99.2382 31.7566C98.9531 31.7566 98.8442 31.6141 98.8022 31.3709C98.4026 29.1463 98.0001 26.9217 97.6117 24.697C97.5697 24.4567 97.4384 24.4259 97.2511 24.4259C96.5888 24.4232 95.9264 24.4176 95.2641 24.4176C94.1601 24.4148 93.0562 24.4176 91.9523 24.4064C91.6756 24.4036 91.5694 24.507 91.5247 24.7781C91.2704 26.3012 90.9965 27.8216 90.7282 29.3447C90.6024 30.0602 90.4766 30.7756 90.3313 31.4883C90.3118 31.5861 90.1832 31.7398 90.1022 31.7398C88.5678 31.7538 87.0363 31.7482 85.502 31.7454C85.46 31.7454 85.4153 31.7203 85.3231 31.6923H85.3203ZM94.6297 8.27782C93.8723 12.0256 93.182 15.751 92.5336 19.4988C93.7912 19.4988 94.9538 19.4988 96.1137 19.4988C96.6587 19.4988 96.6642 19.4988 96.572 18.979C96.0326 15.9243 95.4904 12.8724 94.9455 9.81774C94.8532 9.3035 94.7359 8.79206 94.6297 8.27782Z" fill="#968C8A"/>
<path d="M56.8858 31.7317C56.7126 31.7429 56.6008 31.7597 56.4862 31.7597C55.0804 31.7597 53.6747 31.7457 52.2689 31.7597C51.9531 31.7625 51.8553 31.6395 51.805 31.3544C51.4193 29.1633 51.014 26.9722 50.6284 24.7811C50.5781 24.4933 50.4523 24.4066 50.1644 24.4094C48.4345 24.4234 46.7017 24.4262 44.9718 24.4122C44.6867 24.4122 44.5945 24.5073 44.5498 24.77C44.1613 26.9974 43.7561 29.222 43.3676 31.4466C43.3257 31.6898 43.2055 31.796 42.9791 31.7932C41.4923 31.7792 40.0055 31.7625 38.5187 31.7429C38.4768 31.7429 38.432 31.7149 38.3594 31.6926C38.4069 31.36 38.446 31.0302 38.5047 30.706C38.9239 28.378 39.3487 26.0528 39.7707 23.7247C40.4387 20.0245 41.1038 16.3242 41.7746 12.6239C42.3168 9.62796 42.8645 6.63198 43.4095 3.636C43.6023 2.5684 43.8008 1.50359 43.9852 0.433201C44.0216 0.229184 44.1082 0.162109 44.3038 0.162109C46.4754 0.164904 48.6497 0.164904 50.8212 0.162109C51.0839 0.162109 51.1929 0.293463 51.2348 0.531018C51.5339 2.22464 51.8329 3.91547 52.1375 5.6091C52.3779 6.94779 52.6322 8.28368 52.8754 9.62516C53.1884 11.3495 53.493 13.0767 53.8032 14.8039C54.038 16.109 54.2755 17.4142 54.5103 18.7193C54.854 20.6142 55.1978 22.509 55.5388 24.4066C55.9412 26.6425 56.3409 28.8783 56.7433 31.1141C56.7768 31.3041 56.8299 31.4914 56.8858 31.7345V31.7317ZM47.6352 8.22499C47.6156 8.2222 47.5933 8.2194 47.5737 8.21381C47.5458 8.30883 47.5122 8.40386 47.4954 8.50167C47.297 9.60281 47.1042 10.7039 46.9085 11.8051C46.467 14.2561 46.0282 16.7071 45.5754 19.1553C45.5251 19.4264 45.5866 19.5018 45.8605 19.4991C46.9756 19.4879 48.0907 19.4907 49.2058 19.4935C49.6726 19.4935 49.6865 19.4907 49.6027 19.0323C49.1667 16.64 48.7251 14.2477 48.2892 11.8526C48.0684 10.6425 47.856 9.43233 47.638 8.2222L47.6352 8.22499Z" fill="#968C8A"/>
<path d="M13.8584 7.7615C13.1486 7.7615 12.4415 7.75591 11.7316 7.7643C11.4941 7.76709 11.4018 7.68884 11.3375 7.44569C11.2062 6.94823 11.0804 6.4284 10.8317 5.98683C10.3286 5.08692 9.4986 4.65652 8.46454 4.6677C7.76305 4.67609 7.07275 4.77949 6.47467 5.19312C6.02471 5.50334 5.73685 5.92814 5.63903 6.46194C5.43502 7.55469 5.57196 8.59155 6.1393 9.56692C7.06716 11.1599 8.33039 12.4567 9.73056 13.6305C11.3012 14.9468 12.9194 16.2045 14.3782 17.6522C16.3793 19.6364 17.3155 22.0371 17.0389 24.8067C16.7035 28.1688 14.5627 30.877 10.9994 31.7182C8.88934 32.2157 6.79606 32.0731 4.80061 31.1592C2.75764 30.223 1.48323 28.5825 0.630824 26.5674C0.247942 25.6619 0.164099 24.6922 0.0075923 23.7391C-0.0427134 23.4345 0.069077 23.306 0.401653 23.3088C1.74873 23.3255 3.0958 23.3171 4.44288 23.3227C4.95991 23.3227 4.94314 23.3339 5.0158 23.8174C5.24497 25.3489 5.91851 26.5786 7.50034 27.0593C8.89493 27.4841 10.5019 27.1767 11.4549 25.9973C12.3157 24.9325 12.2291 22.8308 11.5164 21.9533C10.9575 21.2658 10.3929 20.5643 9.73336 19.9746C8.23537 18.6303 6.64515 17.3839 5.15275 16.034C3.6324 14.6618 2.33283 13.1051 1.44689 11.2298C0.390474 8.99399 0.197636 6.73024 1.11432 4.42176C2.05056 2.08814 3.82244 0.67958 6.27344 0.238008C7.87764 -0.0498524 9.5489 -0.153258 11.1363 0.380541C13.4895 1.16866 15.0574 2.8036 15.8539 5.12604C16.1054 5.85827 16.1613 6.65478 16.3066 7.42334C16.3541 7.68045 16.2479 7.77268 15.9852 7.76709C15.2782 7.75312 14.5683 7.7615 13.8584 7.7615Z" fill="#968C8A"/>
</g>
<defs>
<clipPath id="clip0_3234_59346">
<rect width="120.734" height="32" fill="white"/>
</clipPath>
</defs>
</svg>
